<mxfile host="app.diagrams.net" modified="2024-05-15T07:53:19.628Z" agent="Mozilla/5.0 (X11; Linux x86_64; rv:126.0) Gecko/20100101 Firefox/126.0" version="24.4.0" etag="Kp7qbKwwBNmlyv_6EZj-" type="github">
  <diagram name="Page-1" id="rtqmb1G7pmRIMdZEJblD">
    <mxGraphModel>
      <root>
        <mxCell id="0" />
        <mxCell id="1" parent="0" />
      </root>
    </mxGraphModel>
  </diagram>
</mxfile>
